<svg xmlns="http://www.w3.org/2000/svg" width="387" height="387" viewBox="0 0 387 387" version="1.1"><path d="M 195.435 98.105 C 195.120 98.615, 194.475 98.794, 194.003 98.502 C 193.531 98.210, 192.846 98.910, 192.481 100.059 C 191.853 102.039, 191.722 102.059, 189.928 100.435 C 188.300 98.962, 187.805 98.917, 186.365 100.112 C 184.293 101.831, 184.635 101.879, 181.968 99.500 L 179.726 97.500 181.323 100.623 C 182.202 102.341, 182.649 104.018, 182.318 104.349 C 181.986 104.680, 182.189 105.525, 182.769 106.226 C 183.349 106.927, 183.975 108.751, 184.162 110.281 C 184.348 111.811, 184.838 113.048, 185.250 113.031 C 185.662 113.014, 191.124 113, 197.387 113 L 208.773 113 209.269 109.750 C 209.542 107.963, 209.313 105.938, 208.760 105.250 C 208.208 104.563, 208.105 104, 208.533 104 C 208.960 104, 208.497 103.102, 207.503 102.004 C 206.021 100.365, 205.420 100.231, 204.156 101.254 C 202.925 102.250, 202.767 102.249, 203.368 101.248 C 203.861 100.428, 203.151 99.599, 201.310 98.844 C 197.308 97.204, 196.087 97.051, 195.435 98.105 M 183.532 124.610 C 180.645 146.923, 166.739 165.849, 145.202 176.775 C 139.538 179.649, 133.833 182, 132.523 182 C 131.214 182, 129.424 182.719, 128.546 183.597 C 127.667 184.476, 126.285 184.940, 125.474 184.629 C 124.663 184.317, 124 184.514, 124 185.067 C 124 185.716, 123.294 185.693, 122 185 C 120.428 184.159, 120 184.240, 120 185.376 C 120 186.195, 119.241 186.700, 118.250 186.540 C 117.287 186.384, 115.951 186.693, 115.281 187.225 C 114.610 187.758, 112.262 187.986, 110.063 187.732 C 107.863 187.478, 105.787 187.547, 105.448 187.885 C 104.818 188.515, 104.229 188.657, 101.345 188.875 C 99.872 188.986, 99.900 189.236, 101.595 191.146 C 103.486 193.275, 103.484 193.283, 101.316 192.146 C 100.114 191.515, 98.539 191.020, 97.816 191.045 C 97.092 191.070, 97.850 191.682, 99.500 192.406 C 101.150 193.130, 102.847 193.527, 103.272 193.288 C 104.632 192.525, 116.947 201.997, 118.501 205.001 C 121.976 211.722, 120.056 231.604, 115.436 236.748 L 112.964 239.500 113.593 236.740 C 114.527 232.642, 114.612 220.901, 113.731 217.750 C 112.352 212.817, 111 214.831, 111 221.818 C 111 233.647, 107.945 240.933, 97.782 253.337 C 95.152 256.548, 93 259.537, 93 259.980 C 93 261.345, 96.298 262.136, 97.033 260.947 C 98.200 259.059, 107.558 263.797, 111.842 268.444 C 117.297 274.363, 120.078 282.391, 120.693 294 C 121.303 305.511, 119.732 311.936, 118.631 302.435 C 117.491 292.599, 114.979 285.032, 112.263 283.253 C 110.926 282.377, 108.080 278.924, 105.937 275.580 C 101.460 268.592, 101.183 268.742, 104.112 276.569 C 105.587 280.511, 105.959 282.860, 105.347 284.357 C 104.865 285.536, 104.499 288.139, 104.535 290.142 C 104.585 293.027, 104.277 293.663, 103.049 293.204 C 101.666 292.688, 101.661 292.826, 103 294.500 C 104.361 296.200, 104.337 296.313, 102.750 295.719 C 101.785 295.357, 101 295.529, 101 296.103 C 101 296.675, 100.344 297.799, 99.542 298.600 C 98.741 299.402, 98.339 300.720, 98.649 301.529 C 98.960 302.338, 98.716 303, 98.107 303 C 97.498 303, 97 302.475, 97 301.833 C 97 301.192, 96.711 300.956, 96.357 301.309 C 96.004 301.663, 96.317 302.678, 97.054 303.565 C 98.182 304.924, 98.165 305.145, 96.946 304.970 C 96.151 304.856, 94.600 304.848, 93.500 304.952 L 91.500 305.141 93.500 306 C 95.334 306.788, 94.209 307.507, 91.750 307.118 C 91.046 307.007, 90.615 308.562, 90.882 310.250 C 91.074 311.471, 89.201 311.104, 88.779 309.837 C 88.163 307.990, 85.243 308.007, 85.379 309.857 C 85.468 311.068, 84.652 311.498, 82.278 311.492 C 79.566 311.485, 79.270 311.699, 80.411 312.840 C 81.413 313.841, 82.276 313.923, 83.717 313.152 C 85.232 312.341, 85.667 312.430, 85.667 313.554 C 85.667 314.349, 85.470 314.804, 85.231 314.564 C 84.991 314.324, 83.750 314.525, 82.475 315.010 C 80.820 315.639, 79.816 315.483, 78.972 314.467 C 78.076 313.386, 77.309 313.299, 75.800 314.107 C 74.200 314.963, 73.423 314.758, 71.845 313.064 C 70.765 311.904, 69.458 311.217, 68.940 311.537 C 68.423 311.856, 67.998 311.754, 67.995 311.309 C 67.992 310.864, 66.835 309.150, 65.424 307.500 C 63.484 305.232, 63.639 305.688, 66.059 309.369 C 71.906 318.264, 92.857 338.259, 102.639 344.280 C 103.339 344.711, 105.405 342.482, 108.006 338.490 C 113.068 330.722, 111.783 330.838, 119.719 337.426 C 127.840 344.167, 136.585 348.537, 146.426 350.774 C 155.808 352.906, 155.801 353.077, 146 360.938 C 141.600 364.467, 138.002 367.387, 138.004 367.427 C 138.033 367.906, 155.016 367.316, 155.514 366.819 C 155.889 366.444, 156.714 366.330, 157.348 366.565 C 159.622 367.408, 167.174 360.389, 165.493 358.994 C 161.331 355.540, 163.782 354.392, 169.219 357.250 C 174.974 360.275, 210.424 360.638, 220.500 357.776 C 223.800 356.838, 226.886 356.055, 227.358 356.036 C 228.620 355.983, 227.100 361.216, 225.262 363.256 C 222.270 366.575, 241.232 369.488, 247.814 366.720 L 251.004 365.379 248.051 363.196 C 245.461 361.281, 243.024 356.056, 243.006 352.379 C 243.003 351.762, 245.268 350.957, 248.040 350.589 C 250.813 350.221, 254.551 349.095, 256.348 348.086 C 267.173 342.005, 276.150 336.567, 276.622 335.802 C 276.922 335.317, 278.932 336.512, 281.087 338.460 C 286.473 343.326, 295.930 339.508, 306 328.402 C 307.925 326.280, 308.565 325.321, 307.421 326.271 C 306.278 327.222, 304.564 328, 303.612 328 C 302.661 328, 302.160 328.450, 302.500 329 C 302.840 329.550, 302.390 330, 301.500 330 C 300.610 330, 300.134 330.408, 300.442 330.907 C 300.751 331.405, 300.095 331.576, 298.986 331.286 C 297.876 330.996, 296.681 330.293, 296.330 329.725 C 295.961 329.127, 296.178 328.992, 296.845 329.405 C 298.261 330.279, 300.242 329.200, 299.481 327.969 C 299.158 327.447, 297.943 327.451, 296.551 327.980 C 293.171 329.266, 287.324 324.684, 287.209 320.659 C 287.165 319.086, 286.423 317.020, 285.562 316.068 C 284.700 315.116, 284.297 314.037, 284.664 313.669 C 285.032 313.301, 284.760 313, 284.060 313 C 283.338 313, 283.036 312.349, 283.362 311.500 C 283.678 310.675, 283.576 310, 283.135 310 C 282.694 310, 282.302 309.438, 282.264 308.750 C 282.225 308.063, 281.887 305.700, 281.511 303.500 C 279.806 293.504, 282.121 275, 285.078 275 C 286.311 275, 286.260 272.278, 285.011 271.507 C 284.456 271.164, 284.271 271.542, 284.589 272.371 C 284.925 273.247, 284.311 274.298, 283.078 274.958 C 281.935 275.570, 280.947 275.717, 280.882 275.285 C 280.817 274.853, 280.454 275.850, 280.076 277.500 C 279.698 279.150, 278.868 280.393, 278.230 280.262 C 277.535 280.119, 277.325 280.684, 277.706 281.676 C 278.096 282.692, 277.938 283.080, 277.297 282.683 C 276.696 282.312, 275.341 284.259, 274.104 287.269 L 271.954 292.500 272.520 288 C 273.298 281.808, 276.282 276.023, 281.217 271.137 C 285.683 266.714, 287.254 263.259, 284.007 264.996 C 281.793 266.181, 276.910 272.253, 273.441 278.134 C 271.858 280.817, 271.125 281.536, 271.540 280 C 274.381 269.469, 284.538 261.060, 294.500 260.990 C 296.150 260.979, 297.044 260.639, 296.486 260.235 C 294.164 258.552, 287 249.618, 287 248.404 C 287 246.411, 281.216 234.874, 278.620 231.690 L 276.329 228.879 276.718 232.190 C 277.072 235.198, 276.991 235.317, 275.829 233.500 C 270.799 225.627, 273.935 205.569, 281.460 197.488 C 286.912 191.634, 286.422 191.049, 276 190.983 C 265.988 190.918, 254.881 189.426, 254.018 188.029 C 253.634 187.408, 252.348 186.827, 251.160 186.737 C 249.972 186.648, 249 186.220, 249 185.787 C 249 185.354, 248.523 185, 247.941 185 C 247.359 185, 247.207 185.563, 247.605 186.250 C 248.002 186.938, 247.202 186.318, 245.826 184.874 C 244.451 183.430, 241.616 181.437, 239.527 180.446 C 230.070 175.958, 221.323 164.984, 226.016 163.495 C 227.847 162.914, 227.527 162.247, 222.516 156.210 C 219.279 152.311, 217 148.594, 217 147.216 C 217 145.924, 215.931 143.434, 214.624 141.683 C 211.866 137.988, 210.405 133.609, 209.475 126.250 L 208.812 121 204.057 121 C 201.442 121, 195.896 120.712, 191.733 120.360 L 184.164 119.720 183.532 124.610 M 56.782 123.771 C 56.418 125.135, 54.922 126.480, 53.037 127.137 C 48.563 128.696, 49.797 129.149, 54.591 127.707 C 58.173 126.629, 58.538 126.232, 57.995 124 L 57.387 121.500 56.782 123.771 M 332.641 125.209 C 331.710 128.685, 331.870 129.353, 333.342 128.131 C 334.080 127.519, 334.868 127.175, 335.092 127.368 C 336.268 128.378, 341.104 128.977, 340.525 128.040 C 340.171 127.468, 339.034 127, 337.998 127 C 336.961 127, 335.470 126.082, 334.684 124.959 C 333.261 122.927, 333.252 122.928, 332.641 125.209 M 188.646 136.648 C 180.494 142.999, 181.748 151.354, 193.702 170.315 C 197.374 176.139, 205.382 165.379, 209.585 148.976 C 213.153 135.048, 200.364 127.518, 188.646 136.648 M 324.787 151.710 C 324.530 152.695, 324.911 155.075, 325.634 157 L 326.949 160.500 326.346 155.500 C 325.655 149.763, 325.435 149.228, 324.787 151.710 M 328.572 179 C 329.146 189.890, 330.574 196.405, 332.788 198.231 C 334.144 199.349, 334.183 199.229, 333.116 197.226 C 332.449 195.975, 331.042 189.225, 329.988 182.226 L 328.072 169.500 328.572 179 M 200.549 180.494 C 197.394 183.600, 194.272 185.935, 193.614 185.682 C 192.955 185.429, 191.572 185.840, 190.540 186.594 C 189.044 187.688, 188.356 187.717, 187.140 186.733 C 186.060 185.859, 185.822 185.844, 186.324 186.681 C 186.714 187.330, 186.615 188.120, 186.104 188.436 C 185.593 188.752, 185.294 187.924, 185.440 186.598 C 185.666 184.539, 185.348 184.251, 183.272 184.627 C 181.488 184.951, 181.045 184.726, 181.612 183.784 C 182.099 182.973, 181.689 183.053, 180.500 184 C 179.464 184.825, 178.884 185.050, 179.213 184.500 C 179.541 183.950, 178.784 183.500, 177.532 183.500 C 175.277 183.500, 175.115 185.665, 177.261 187.111 C 177.760 187.447, 177.460 187.993, 176.596 188.325 C 175.731 188.657, 175.131 188.607, 175.262 188.214 C 175.393 187.821, 175.050 187.500, 174.500 187.500 C 173.950 187.500, 173.624 187.871, 173.775 188.324 C 173.926 188.778, 173.608 188.876, 173.068 188.542 C 172.529 188.209, 172.323 187.321, 172.612 186.569 C 172.900 185.817, 172.586 184.862, 171.914 184.447 C 171.116 183.954, 170.948 184.107, 171.432 184.889 C 171.839 185.549, 171.448 187.193, 170.563 188.544 C 169.678 189.895, 169.244 191, 169.599 191 C 169.954 191, 169.689 191.670, 169.009 192.489 C 168.329 193.308, 167.405 193.751, 166.956 193.473 C 166.506 193.195, 165.870 193.401, 165.542 193.931 C 165.211 194.468, 165.845 194.723, 166.973 194.505 C 168.088 194.290, 169 194.539, 169 195.057 C 169 195.576, 168.325 196, 167.500 196 C 166.675 196, 166 196.477, 166 197.059 C 166 197.641, 165.625 197.886, 165.167 197.603 C 163.304 196.452, 164.497 200.406, 166.667 202.576 C 167.950 203.859, 168.968 205.717, 168.930 206.705 C 168.866 208.326, 168.786 208.312, 168.102 206.566 C 167.582 205.237, 167.116 205.003, 166.613 205.816 C 166.211 206.467, 164.446 207.007, 162.691 207.015 C 160.514 207.026, 159.933 207.305, 160.861 207.893 C 161.609 208.367, 162.997 208.552, 163.944 208.304 C 165.020 208.023, 165.667 208.428, 165.667 209.383 C 165.667 210.224, 165.215 210.633, 164.663 210.292 C 164.056 209.917, 163.925 210.361, 164.330 211.418 C 164.699 212.378, 165 213.338, 165 213.550 C 165 214.236, 168.451 212.738, 170.083 211.344 C 171.421 210.201, 171.667 210.216, 171.667 211.440 C 171.667 212.237, 171.404 212.865, 171.083 212.836 C 169.562 212.699, 166 214.338, 166 215.176 C 166 215.694, 165.480 215.797, 164.845 215.405 C 164.184 214.996, 163.960 215.127, 164.322 215.711 C 164.668 216.273, 166.088 216.515, 167.476 216.249 C 169.062 215.946, 170 216.221, 170 216.990 C 170 217.667, 169.330 217.957, 168.500 217.638 C 167.675 217.322, 167 217.499, 167 218.031 C 167 218.564, 167.675 219, 168.500 219 C 169.325 219, 170.053 219.787, 170.118 220.750 C 170.183 221.713, 170.580 221.150, 171 219.500 L 171.763 216.500 171.882 219.250 C 171.967 221.240, 172.523 222, 173.893 222 C 174.934 222, 176.072 222.744, 176.421 223.653 C 176.993 225.145, 177.201 225.121, 178.542 223.403 C 179.360 222.357, 179.969 221.950, 179.896 222.500 C 179.510 225.405, 180.009 226.534, 181 225 C 181.862 223.667, 181.973 223.667, 182 225 C 182.027 226.333, 182.136 226.333, 182.979 225 C 183.799 223.703, 184.169 223.763, 185.714 225.445 C 187.441 227.326, 187.436 227.342, 185.586 225.945 C 183.819 224.611, 183.752 224.653, 184.706 226.500 C 185.275 227.600, 185.613 229.290, 185.458 230.255 C 185.141 232.225, 188.512 235, 191.223 235 C 192.200 235, 193 235.472, 193 236.048 C 193 239.019, 206.369 247.228, 213.338 248.536 C 216.339 249.098, 216.833 249.496, 215.913 250.605 C 215.286 251.360, 214.374 251.731, 213.887 251.430 C 213.399 251.129, 213 251.406, 213 252.047 C 213 252.687, 211.805 254.626, 210.345 256.356 C 208.885 258.085, 206.912 261.233, 205.961 263.350 C 205.009 265.468, 203.166 267.728, 201.865 268.373 C 197.868 270.355, 197.977 277.500, 202 277.199 C 202.275 277.179, 202.435 279.938, 202.357 283.331 L 202.213 289.500 202.949 284.500 C 203.354 281.750, 203.756 280.305, 203.843 281.290 C 204.070 283.882, 207.466 290.210, 210.702 294.072 C 212.241 295.908, 212.960 297.081, 212.300 296.677 C 211.587 296.242, 210.660 296.767, 210.015 297.972 C 207.895 301.933, 205.509 299.900, 203.595 292.500 C 203.310 291.400, 203.318 293.875, 203.612 298 C 204.202 306.275, 204.395 306.678, 208 307.164 C 209.991 307.431, 210.839 306.822, 212.162 304.171 C 213.077 302.340, 214.056 300.611, 214.338 300.329 C 214.879 299.788, 220.853 301.517, 224.907 303.389 C 230.889 306.151, 241.050 304.804, 248.587 300.250 C 252.455 297.912, 256.542 296, 257.668 296 C 261.958 296, 262.944 269.942, 259.040 259.718 C 256.483 253.022, 251.486 246.059, 247.954 244.271 C 245.839 243.201, 246.416 242.502, 249.132 242.842 C 249.480 242.886, 249.718 242.377, 249.662 241.711 C 249.605 241.045, 250.300 238.925, 251.206 237 C 253.921 231.234, 254.777 228.511, 255.206 224.274 C 255.331 223.050, 255.972 221.841, 256.631 221.588 C 257.386 221.298, 257.756 219.227, 257.630 215.990 C 257.519 213.165, 257.783 210.634, 258.215 210.367 C 258.647 210.100, 259 210.359, 259 210.941 C 259 214.535, 264.137 211.707, 266.498 206.813 C 269.766 200.038, 266.429 194.363, 260.511 196.634 C 259.680 196.953, 259 196.791, 259 196.274 C 259 195.756, 258.438 195.271, 257.750 195.195 C 252.740 194.643, 240.385 191.611, 239.888 190.812 C 239.552 190.271, 239.102 189.939, 238.888 190.073 C 237.707 190.814, 230.471 188.585, 228.698 186.933 C 227.556 185.869, 225.920 185.112, 225.061 185.250 C 224.202 185.387, 223.613 184.938, 223.750 184.250 C 223.888 183.563, 223.550 183, 223 183 C 222.450 183, 221.971 183.563, 221.937 184.250 C 221.902 184.938, 221.447 184.436, 220.927 183.136 C 220.137 181.164, 219.729 180.980, 218.467 182.027 C 217.219 183.063, 217.056 183.018, 217.535 181.770 C 217.871 180.895, 217.438 179.998, 216.506 179.640 C 215.431 179.228, 215.104 179.435, 215.520 180.261 C 215.864 180.943, 215.069 180.245, 213.754 178.712 C 212.081 176.760, 210.829 176.129, 209.581 176.607 C 208.560 176.999, 207.475 176.769, 207.043 176.069 C 206.523 175.229, 204.497 176.610, 200.549 180.494 M 145.366 195.750 C 146.482 199.653, 147.125 245, 146.064 245 C 145.479 245, 145 245.450, 145 246 C 145 246.550, 146.350 247, 148 247 C 150.822 247, 152.164 245.564, 150.024 244.833 C 149.428 244.629, 149.016 234.691, 148.964 219.250 C 148.881 194.667, 148.825 194, 146.872 194 C 145.437 194, 145.008 194.498, 145.366 195.750 M 236 246.005 C 233.525 246.993, 229.137 248.104, 226.250 248.473 C 220.609 249.194, 219.980 250.188, 221.927 255.307 C 222.836 257.698, 222.950 257.720, 227.826 256.455 C 230.996 255.633, 234.102 255.459, 236.392 255.976 C 238.474 256.445, 239.754 256.410, 239.434 255.893 C 239.130 255.402, 239.684 255, 240.663 255 C 242.182 255, 242.116 254.770, 240.218 253.440 C 237.928 251.836, 237.947 248.188, 240.260 245.250 C 240.802 244.563, 241.077 244.047, 240.872 244.104 C 240.668 244.161, 238.475 245.016, 236 246.005 M 243 247.941 C 243 248.459, 243.422 249.142, 243.937 249.461 C 248.443 252.246, 247.924 258.682, 243.333 256.937 C 240.377 255.813, 240.339 257.057, 243.250 259.677 C 245.524 261.724, 249.084 263.970, 247.810 262.554 C 247.431 262.132, 248.030 260.823, 249.142 259.644 C 253.152 255.392, 253.240 254.343, 249.907 250.547 C 247.027 247.267, 243 245.748, 243 247.941 M 144.200 249.200 C 142.407 250.993, 142.743 254.968, 144.750 255.708 C 145.713 256.064, 146.803 256.808, 147.174 257.363 C 148.520 259.378, 151 255.822, 151 251.878 C 151 247.747, 147.164 246.236, 144.200 249.200 M 215.106 254.683 C 209.693 260.581, 204.570 275.146, 208.430 273.665 C 209.517 273.248, 210 273.647, 210 274.964 C 210 276.010, 209.100 277.151, 208 277.500 C 202.111 279.369, 213.642 298.881, 219.732 297.353 C 221.460 296.919, 222.880 297.446, 224.815 299.240 C 229.396 303.487, 238.312 303.326, 244.349 298.888 C 245.916 297.737, 247.716 296.692, 248.349 296.568 C 258.865 294.506, 262.276 278.504, 255.858 261.349 L 253.781 255.799 251.048 259.928 L 248.315 264.056 250.317 269.778 C 257.697 290.863, 231.789 304.187, 217.579 286.615 C 212.864 280.785, 212.973 269.104, 217.797 263.102 L 221.094 259 217.297 258.850 C 214.283 258.731, 214.067 258.614, 216.250 258.284 C 218.635 257.922, 219 257.412, 219 254.434 C 219 250.229, 219.206 250.216, 215.106 254.683 M 268 251.789 C 268 254.268, 271.717 259.486, 273.270 259.187 C 275.778 258.703, 275.398 256.755, 272.195 253.687 C 269.356 250.967, 268 250.353, 268 251.789 M 227.500 260.487 C 221.523 263.295, 216.621 270.545, 218.812 273.337 C 220.286 275.216, 221.152 280, 220.019 280 C 217.758 280, 219.228 283.526, 222.974 287.090 C 230.864 294.595, 242.490 292.817, 247.045 283.407 C 253.358 270.366, 239.948 254.641, 227.500 260.487 M 151.096 266.265 C 145.611 269.084, 144.478 272.222, 144.753 283.830 C 145.149 300.506, 146.878 301.382, 176.659 300 L 187.430 299.500 189.715 296.102 C 195.067 288.143, 192.393 269.838, 185.393 266.516 C 181.275 264.562, 154.787 264.368, 151.096 266.265 M 157.953 368.050 C 156.249 369.128, 156.949 369.319, 163 369.423 C 171.831 369.574, 169.639 376.942, 160.750 376.986 C 158.268 376.999, 158 377.346, 158 380.559 C 158 383.078, 157.635 383.932, 156.750 383.483 C 156.063 383.133, 156.562 383.782, 157.861 384.924 C 163.060 389.496, 181.837 385.911, 185.154 379.712 C 185.929 378.263, 185.898 377.945, 185.033 378.479 C 184.392 378.876, 183.328 378.463, 182.669 377.562 C 181.574 376.064, 181.094 376.056, 177.109 377.461 C 171.648 379.388, 172 379.454, 172 376.500 C 172 375.125, 172.401 374, 172.891 374 C 173.380 374, 173.965 372.425, 174.190 370.500 C 174.609 366.908, 173.429 365.971, 171.242 368.158 C 170.427 368.973, 169.703 369.005, 168.792 368.265 C 167.183 366.958, 159.908 366.813, 157.953 368.050 M 146.551 371.339 C 144.578 372.782, 146.963 374.759, 149.090 373.444 C 149.591 373.135, 150 373.386, 150 374.002 C 150 374.760, 148.573 374.908, 145.590 374.461 C 143.009 374.074, 140.417 374.243, 139.340 374.870 C 138.207 375.528, 138.014 375.951, 138.839 375.970 C 139.680 375.989, 139.155 377.209, 137.428 379.250 C 135.915 381.038, 134.267 382.376, 133.765 382.225 C 133.262 382.074, 133.136 382.412, 133.485 382.975 C 134.716 384.967, 137.669 383.958, 140.731 380.500 C 143.186 377.727, 144.574 377, 147.415 377 C 150.681 377, 151.516 376.267, 151.118 373.750 C 151.053 373.337, 151.675 373, 152.500 373 C 153.325 373, 154 372.325, 154 371.500 C 154 369.590, 149.088 369.484, 146.551 371.339 M 180 371 C 177.631 371.759, 177.671 371.806, 180.750 371.900 C 182.537 371.955, 184 372.450, 184 373 C 184 373.550, 184.466 374, 185.035 374 C 185.737 374, 185.726 373.356, 185 372 C 183.841 369.834, 183.718 369.809, 180 371 M 259.662 373.184 C 258.943 375.934, 259.613 377, 262.059 377 C 264.479 377, 264.487 376.435, 262.114 373.418 L 260.228 371.020 259.662 373.184 M 211.116 374.093 C 210.619 380.918, 225.528 387.563, 238.126 386.131 C 243.596 385.509, 250.328 385, 253.086 385 C 258.312 385, 264 382.798, 264 380.774 C 264 379.889, 263.704 379.896, 262.800 380.800 C 260.677 382.923, 258.243 382.135, 257.138 378.966 C 256.194 376.259, 255.688 375.958, 252.432 376.178 C 249.930 376.346, 248.389 375.885, 247.531 374.712 C 244.655 370.778, 238 374.137, 238 379.523 C 238 386.330, 229.900 384.021, 226.961 376.375 C 225.927 373.685, 221.858 373.552, 219.103 376.119 C 216.731 378.329, 212.473 377.287, 211.700 374.307 C 211.337 372.904, 211.206 372.856, 211.116 374.093" stroke="none" fill="#21426a" fill-rule="evenodd"/><path d="M 300.137 4.807 C 299.038 6.351, 296.469 10.964, 294.428 15.057 C 292.388 19.151, 289.882 23.694, 288.859 25.154 C 287.837 26.614, 287 28.494, 287 29.332 C 287 30.169, 285.895 31.724, 284.545 32.786 L 282.090 34.717 284.609 36.908 C 289.265 40.956, 296.259 42.373, 297.365 39.491 C 297.684 38.661, 298.519 38.098, 299.222 38.241 C 299.925 38.383, 300.387 37.938, 300.250 37.250 C 300.113 36.563, 300.542 36.113, 301.205 36.250 C 301.867 36.388, 302.450 35.825, 302.500 35 C 302.550 34.175, 303.133 33.612, 303.795 33.750 C 304.458 33.887, 305 33.325, 305 32.500 C 305 31.675, 305.477 31, 306.059 31 C 306.641 31, 306.869 30.597, 306.565 30.104 C 306.260 29.612, 307.134 26.227, 308.506 22.582 C 311.534 14.536, 311.593 12.485, 308.923 8.105 C 304.727 1.223, 303.119 0.619, 300.137 4.807 M 95.413 10.595 C 95.565 12.022, 96.133 13.485, 96.675 13.845 C 97.218 14.205, 98.717 16.637, 100.008 19.250 C 102.215 23.717, 104.186 25.127, 105.423 23.124 C 106.402 21.541, 97.636 8, 95.633 8 C 95.360 8, 95.261 9.168, 95.413 10.595 M 222.510 37.908 C 223.125 38.986, 222.809 39.183, 221.157 38.751 C 219.972 38.441, 218.720 38.644, 218.376 39.201 C 217.974 39.851, 217.482 39.780, 217.002 39.004 C 216.424 38.068, 215.754 38.061, 214.049 38.974 C 212.836 39.623, 211.181 39.900, 210.370 39.588 C 209.532 39.267, 209.163 39.455, 209.514 40.023 C 209.854 40.573, 208.753 41.299, 207.066 41.637 C 205.380 41.974, 204 42.829, 204 43.537 C 204 44.867, 202.331 44.964, 200.384 43.745 C 199.049 42.911, 196.328 45.878, 196.482 48 C 196.542 48.825, 197.166 49.376, 197.870 49.225 C 198.587 49.071, 198.847 49.439, 198.461 50.062 C 197.967 50.863, 197.470 50.870, 196.687 50.087 C 195.158 48.558, 194 48.736, 194 50.500 C 194 51.325, 193.495 52, 192.878 52 C 192.148 52, 192.236 52.579, 193.128 53.654 C 193.882 54.563, 194.370 55.473, 194.212 55.675 C 194.054 55.877, 194.425 56.820, 195.038 57.771 C 196.087 59.401, 196.120 59.400, 195.607 57.750 C 195.308 56.788, 195.499 56, 196.031 56 C 196.564 56, 197 56.927, 197 58.059 C 197 59.191, 197.359 59.896, 197.798 59.625 C 198.237 59.354, 199.249 59.545, 200.048 60.051 C 201.044 60.681, 201.108 60.974, 200.250 60.985 C 199.563 60.993, 199.007 62.013, 199.015 63.250 C 199.024 64.487, 199.361 65.050, 199.765 64.500 C 200.676 63.260, 204.187 62.889, 203.430 64.113 C 203.129 64.601, 203.921 65.003, 205.191 65.006 C 206.461 65.010, 208.808 65.694, 210.406 66.528 C 213.105 67.935, 213.445 67.899, 215.195 66.021 C 217.469 63.580, 218.148 63.450, 217.317 65.616 C 216.781 67.014, 217.005 67.068, 218.969 66.017 C 220.451 65.224, 221.005 65.183, 220.562 65.900 C 220.188 66.505, 220.359 67, 220.941 67 C 221.523 67, 222 66.523, 222 65.941 C 222 65.359, 222.526 65.207, 223.170 65.605 C 223.949 66.087, 224.133 65.789, 223.721 64.715 C 223.296 63.607, 223.536 63.268, 224.488 63.634 C 225.291 63.942, 225.619 64.867, 225.267 65.833 C 224.712 67.360, 224.823 67.367, 226.580 65.926 C 228.539 64.321, 232 64.408, 232 66.062 C 232 67.453, 237.302 66.756, 238.955 65.147 C 239.964 64.167, 240.527 64.082, 240.791 64.872 C 241 65.499, 241.582 65.758, 242.085 65.447 C 244.251 64.109, 242.759 66.894, 240.391 68.610 C 223.890 80.565, 211.546 99.921, 210.884 114.878 C 210.802 116.734, 210.629 116.962, 210.293 115.656 C 209.854 113.954, 208.747 113.839, 195.932 114.156 L 182.048 114.500 181.427 111.500 C 172.557 68.606, 132.034 50.608, 88.250 70.117 C 85.912 71.158, 84 72.259, 84 72.564 C 84 72.869, 84.563 72.833, 85.250 72.485 C 85.938 72.137, 85.713 72.497, 84.750 73.286 C 83.787 74.075, 83 75.233, 83 75.860 C 83 76.487, 82.425 77, 81.722 77 C 80.470 77, 77.485 79.927, 75.500 83.099 C 73.362 86.518, 66.870 94.879, 66.120 95.182 C 61.530 97.029, 57.439 126.774, 61.250 130.584 C 61.663 130.996, 62 132.346, 62 133.584 C 62 134.821, 62.900 137.934, 64 140.500 C 65.100 143.066, 66 146.060, 66 147.153 C 66 149.893, 70.788 156.596, 76.679 162.105 C 112.946 196.016, 172.169 175.601, 181.414 126 L 182.625 119.500 196.641 119.500 C 210.175 119.500, 210.649 119.570, 210.438 121.550 C 208.969 135.359, 228.456 163.957, 245 172.270 C 277.899 188.802, 324.111 168.884, 328.654 136.213 C 328.938 134.171, 329.435 131.825, 329.758 131 C 332.964 122.811, 329.971 97, 325.816 97 C 325.302 97, 325.160 96.550, 325.500 96 C 325.840 95.450, 325.705 95, 325.201 95 C 324.696 95, 322.664 92.562, 320.685 89.581 C 316.194 82.817, 310.910 77, 309.257 77 C 308.566 77, 308 76.385, 308 75.633 C 308 71.001, 286.097 62.209, 272.226 61.273 C 263.861 60.709, 262.280 59.947, 268.244 59.354 C 274.898 58.693, 274.968 58.666, 273.759 57.209 C 272.491 55.682, 274.617 53.645, 276.357 54.720 C 276.937 55.079, 276.967 54.761, 276.433 53.905 C 275.142 51.836, 275.002 49.809, 276.029 48.054 C 276.573 47.126, 276.951 46.991, 276.970 47.719 C 276.987 48.424, 277.678 48.677, 278.609 48.320 C 281.120 47.356, 277.585 45.702, 274.730 46.505 C 273.114 46.959, 272.886 46.864, 273.902 46.162 C 275.622 44.975, 267.728 40.783, 265.432 41.665 C 264.644 41.967, 264 41.794, 264 41.280 C 264 40.767, 262.586 40.554, 260.858 40.808 C 259.085 41.068, 257.964 40.868, 258.285 40.349 C 258.597 39.843, 257.986 39.429, 256.927 39.429 C 255.867 39.429, 255 39.782, 255 40.214 C 255 40.646, 254.523 41, 253.941 41 C 253.359 41, 253.160 40.550, 253.500 40 C 253.840 39.450, 253.390 39, 252.500 39 C 251.610 39, 251.160 39.450, 251.500 40 C 251.840 40.550, 251.679 41, 251.142 41 C 250.606 41, 250.017 40.600, 249.833 40.110 C 249.309 38.711, 237.335 38.080, 235.926 39.377 C 235.017 40.214, 234.878 40.195, 235.380 39.302 C 235.860 38.448, 234.897 38.150, 232.027 38.264 C 229.812 38.353, 228 38.865, 228 39.404 C 228 39.942, 227.292 39.509, 226.426 38.441 C 225.560 37.374, 225.137 37.063, 225.485 37.750 C 225.833 38.438, 225.731 39, 225.259 39 C 224.787 39, 223.794 38.438, 223.053 37.750 C 221.964 36.739, 221.860 36.769, 222.510 37.908 M 109.276 67.446 C 101.361 69.249, 90.250 75.071, 84.001 80.689 C 66.007 96.867, 58.870 130.870, 70.936 142.936 C 72.111 144.111, 72.813 145.493, 72.496 146.007 C 69.619 150.662, 89.262 167.698, 102.761 172.255 C 137.528 183.992, 178.003 155.365, 177.999 119.040 C 177.999 108.497, 165.550 84.052, 157.169 78.137 C 143.621 68.575, 123.774 64.145, 109.276 67.446 M 253.438 69.035 C 217.134 80.547, 204.418 125.824, 229.392 154.653 C 245.775 173.564, 274.012 178.604, 297.411 166.793 C 303.409 163.765, 318 150.007, 318 147.379 C 318 146.705, 319.062 144.881, 320.359 143.327 C 331.971 129.415, 326.694 100.866, 309.150 82.680 C 296.010 69.059, 271.947 63.165, 253.438 69.035 M 271 69.184 C 271 69.950, 274.315 70.471, 276.472 70.044 C 277.007 69.939, 276.582 70.805, 275.528 71.969 C 273.895 73.773, 273.862 73.990, 275.306 73.436 C 276.502 72.977, 277.045 73.332, 277.152 74.643 C 277.236 75.664, 277.409 76.950, 277.537 77.500 C 277.665 78.050, 277.821 79.063, 277.885 79.750 C 277.948 80.438, 278.675 81, 279.500 81 C 280.325 81, 281 81.702, 281 82.559 C 281 83.515, 280.537 83.832, 279.803 83.378 C 279.145 82.972, 279.582 84.008, 280.774 85.682 C 281.966 87.356, 282.654 89.012, 282.304 89.363 C 281.953 89.713, 282.240 90, 282.940 90 C 283.662 90, 283.964 90.651, 283.638 91.500 C 283.282 92.430, 283.643 93, 284.590 93 C 285.431 93, 285.840 93.450, 285.500 94 C 285.160 94.550, 285.359 95, 285.941 95 C 286.523 95, 287 95.915, 287 97.032 C 287 98.150, 287.873 99.387, 288.940 99.782 C 290.722 100.441, 291 100.825, 291 102.622 C 291 102.965, 291.788 102.627, 292.750 101.872 C 294.298 100.658, 294.357 100.683, 293.259 102.092 C 292.576 102.968, 292.351 104.052, 292.759 104.502 C 293.166 104.952, 292.938 104.997, 292.250 104.601 C 291.563 104.206, 291 104.328, 291 104.874 C 291 105.419, 291.900 106.151, 293 106.500 C 294.100 106.849, 295 107.610, 295 108.190 C 295 108.875, 295.495 108.834, 296.411 108.074 C 297.491 107.177, 297.996 107.185, 298.565 108.106 C 299.010 108.825, 298.887 109.048, 298.261 108.661 C 297.625 108.268, 297.269 108.999, 297.356 110.517 C 297.442 112.012, 297.983 112.835, 298.699 112.561 C 299.377 112.301, 299.679 112.674, 299.393 113.420 C 299.095 114.196, 299.835 114.997, 301.193 115.369 C 303.111 115.894, 303.247 116.166, 302 116.985 C 300.720 117.825, 300.760 117.972, 302.275 117.985 C 303.251 117.993, 304.461 119.081, 304.963 120.403 C 305.466 121.724, 306.362 123.106, 306.955 123.472 C 307.548 123.838, 307.762 124.577, 307.430 125.113 C 307.099 125.649, 307.338 126.703, 307.962 127.455 C 308.756 128.411, 308.777 129.020, 308.032 129.480 C 307.447 129.842, 307.226 130.557, 307.543 131.069 C 307.859 131.581, 307.664 132, 307.110 132 C 306.517 132, 306.699 133.429, 307.551 135.468 C 308.348 137.375, 309 139.850, 309 140.968 C 309 142.086, 309.477 143, 310.059 143 C 310.641 143, 310.906 143.342, 310.648 143.761 C 309.552 145.533, 312.664 148.110, 313.982 146.522 C 314.666 145.697, 315.637 145.276, 316.138 145.585 C 316.639 145.895, 316.965 145.778, 316.861 145.324 C 316.530 143.880, 318.218 138.658, 320.683 133.500 C 330.848 112.233, 312.997 79.499, 286.602 71.002 C 281.509 69.362, 271 68.138, 271 69.184 M 267.186 96.828 C 278.939 101.023, 286.882 110.139, 288.683 121.500 C 288.858 122.600, 289.168 124.400, 289.373 125.500 C 289.577 126.600, 289.802 128.118, 289.872 128.872 C 289.975 129.974, 290.294 130.001, 291.489 129.009 C 292.308 128.329, 292.652 127.262, 292.254 126.637 C 291.856 126.012, 291.487 124.375, 291.434 123 C 291.014 112.170, 281.181 99.616, 270.672 96.495 C 263.903 94.485, 261.314 94.732, 267.186 96.828 M 42.200 115.200 C 39.819 117.581, 40.879 119, 45.040 119 C 48.568 119, 57 115.813, 57 114.480 C 57 113.405, 43.330 114.070, 42.200 115.200 M 337.500 116.522 C 343.735 119.589, 350 119.882, 350 117.107 C 350 114.555, 348.118 113.994, 339.668 114.031 L 332.500 114.063 337.500 116.522 M 239.655 139.750 C 243.967 146.719, 251.629 153.034, 255.700 152.973 C 256.690 152.959, 254.834 151.501, 251.576 149.734 C 247.651 147.605, 244.498 144.914, 242.232 141.760 C 238.507 136.575, 236.930 135.345, 239.655 139.750 M 209 195.893 C 209 196.903, 211.422 198, 213.653 198 C 214.473 198, 215.822 198.679, 216.652 199.509 C 217.482 200.339, 218.617 200.737, 219.174 200.392 C 219.731 200.048, 218.299 198.694, 215.991 197.383 C 211.643 194.913, 209 194.350, 209 195.893 M 283.766 200.306 C 279.363 204.348, 275.044 211.625, 275.044 215 C 275.044 215.825, 275.900 214.614, 276.946 212.310 C 277.993 210.005, 280.583 206.180, 282.703 203.810 C 290.586 194.994, 290.985 193.678, 283.766 200.306 M 147.382 210.500 C 147.384 217.100, 147.546 219.670, 147.741 216.211 C 147.937 212.752, 147.936 207.352, 147.738 204.211 C 147.540 201.070, 147.380 203.900, 147.382 210.500 M 244.300 203.108 C 245.290 203.684, 247.427 205.988, 249.050 208.228 C 250.672 210.468, 252 211.784, 252 211.153 C 252 209.583, 245.039 201.993, 243.634 202.030 C 243.010 202.047, 243.310 202.532, 244.300 203.108 M 147.370 233 C 147.370 238.775, 147.535 241.137, 147.737 238.250 C 147.939 235.363, 147.939 230.637, 147.737 227.750 C 147.535 224.863, 147.370 227.225, 147.370 233 M 159.083 265.366 C 159.313 265.568, 165.125 265.947, 172 266.209 C 179.388 266.491, 182.864 266.365, 180.500 265.901 C 176.526 265.120, 158.286 264.665, 159.083 265.366 M 249.267 272.707 C 251.633 281.571, 246.561 290.091, 237.464 292.533 C 233.764 293.526, 233.211 293.882, 235.290 293.933 C 245.361 294.176, 255.801 276.401, 249.367 269.967 C 248.522 269.122, 248.497 269.821, 249.267 272.707 M 259 277.757 C 259 282.573, 258.554 288.067, 258.010 289.966 C 257.465 291.865, 257.383 293.783, 257.827 294.227 C 258.959 295.359, 261.156 280.587, 260.797 274.253 C 260.313 265.710, 259 268.270, 259 277.757 M 243.550 300.143 C 238.566 302.768, 236.906 303.157, 232.308 302.776 C 229.297 302.526, 227.485 302.691, 228.207 303.149 C 231.784 305.418, 245.006 303.014, 248.940 299.379 C 251.770 296.764, 249.302 297.114, 243.550 300.143 M 218 299.086 C 216.850 299.896, 217.258 300.049, 219.750 299.744 C 221.537 299.525, 223 299.670, 223 300.066 C 223 300.462, 223.762 301.079, 224.694 301.436 C 226.179 302.006, 226.159 301.834, 224.539 300.043 C 222.503 297.793, 220.297 297.470, 218 299.086 M 209.250 301.080 C 211.177 302.202, 211.568 304.531, 209.992 305.505 C 208.894 306.184, 206.664 304.337, 205.740 301.982 C 205.243 300.718, 205.146 300.729, 205.079 302.059 C 204.928 305.033, 207.681 307.623, 209.691 306.399 C 212.594 304.632, 212.686 299.993, 209.816 300.030 C 207.762 300.057, 207.698 300.176, 209.250 301.080 M 136.223 369.557 C 133.995 371.117, 133.123 375, 135 375 C 135.550 375, 136 374.564, 136 374.031 C 136 373.499, 136.640 373.308, 137.422 373.608 C 138.949 374.194, 143.054 372.388, 144.197 370.627 C 145.919 367.975, 139.676 367.138, 136.223 369.557 M 228 369.819 C 228 371.177, 229.235 372.277, 232 373.383 C 234.200 374.264, 236.036 375.550, 236.081 376.242 C 236.125 376.934, 236.996 375.708, 238.016 373.518 C 239.035 371.328, 239.786 369.472, 239.685 369.393 C 237.627 367.802, 228 368.154, 228 369.819 M 251.500 369.956 C 249.661 370.705, 249.721 370.829, 252.250 371.494 C 253.762 371.891, 255 372.843, 255 373.608 C 255 375.119, 255.954 375.338, 258.418 374.393 C 260.417 373.626, 260.420 372.563, 258.429 370.571 C 256.724 368.866, 254.629 368.680, 251.500 369.956 M 155 372.022 C 155 373.965, 157.629 375.007, 160.229 374.095 C 162.532 373.287, 161.128 371.415, 157.750 370.788 C 155.606 370.390, 155 370.662, 155 372.022 M 163.153 372.436 C 164.339 375.039, 168.013 376.038, 167.985 373.750 C 167.960 371.752, 166.671 370.524, 164.242 370.186 C 162.159 369.896, 162.075 370.070, 163.153 372.436" stroke="none" fill="#d9caae" fill-rule="evenodd"/><path d="M 83.801 2.911 C 76.015 7.849, 72.524 22.292, 74.956 39.500 C 78.034 61.276, 77.240 66.751, 68.102 86.802 C 62.977 98.049, 59.654 106.987, 60.342 107.675 C 60.567 107.900, 61.790 105.140, 63.060 101.542 C 64.331 97.944, 65.694 95, 66.091 95 C 66.744 95, 73.030 87.049, 75.500 83.099 C 77.485 79.927, 80.470 77, 81.722 77 C 82.425 77, 83 76.487, 83 75.860 C 83 75.233, 83.788 74.075, 84.750 73.286 C 85.713 72.497, 85.938 72.137, 85.250 72.485 C 84.563 72.833, 84 72.869, 84 72.564 C 84 72.259, 85.912 71.158, 88.250 70.117 C 132.162 50.551, 172.501 68.565, 181.483 111.750 C 182.477 116.528, 185.039 116.073, 184.298 111.250 C 183.982 109.188, 183.271 106.927, 182.719 106.226 C 182.167 105.525, 181.986 104.680, 182.318 104.349 C 182.649 104.018, 182.202 102.341, 181.323 100.623 C 179.774 97.593, 179.783 97.547, 181.613 99.063 C 183.680 100.776, 184.819 100.901, 186.813 99.637 C 187.626 99.121, 188.829 99.441, 189.972 100.475 C 191.709 102.046, 191.858 102.021, 192.481 100.059 C 192.846 98.910, 193.531 98.210, 194.003 98.502 C 194.475 98.794, 195.120 98.615, 195.435 98.105 C 196.087 97.051, 197.308 97.204, 201.310 98.844 C 203.151 99.599, 203.861 100.428, 203.368 101.248 C 202.767 102.249, 202.925 102.250, 204.156 101.254 C 205.420 100.231, 206.021 100.365, 207.503 102.004 C 208.497 103.102, 208.960 104, 208.533 104 C 208.105 104, 208.208 104.563, 208.760 105.250 C 209.313 105.938, 209.544 107.949, 209.274 109.719 L 208.782 112.938 197.141 113.254 L 185.500 113.570 197.677 113.785 C 208.325 113.973, 209.911 114.220, 210.311 115.750 C 210.606 116.881, 210.809 116.572, 210.884 114.878 C 211.546 99.921, 223.890 80.565, 240.391 68.610 C 242.759 66.894, 244.251 64.109, 242.085 65.447 C 241.582 65.758, 241 65.499, 240.791 64.872 C 240.527 64.082, 239.964 64.167, 238.955 65.147 C 237.302 66.756, 232 67.453, 232 66.062 C 232 64.408, 228.539 64.321, 226.580 65.926 C 224.823 67.367, 224.712 67.360, 225.267 65.833 C 225.619 64.867, 225.291 63.942, 224.488 63.634 C 223.536 63.268, 223.296 63.607, 223.721 64.715 C 224.133 65.789, 223.949 66.087, 223.170 65.605 C 222.526 65.207, 222 65.359, 222 65.941 C 222 66.523, 221.523 67, 220.941 67 C 220.359 67, 220.188 66.505, 220.562 65.900 C 221.005 65.183, 220.451 65.224, 218.969 66.017 C 217.005 67.068, 216.781 67.014, 217.317 65.616 C 218.148 63.450, 217.469 63.580, 215.195 66.021 C 213.445 67.899, 213.105 67.935, 210.406 66.528 C 208.808 65.694, 206.461 65.010, 205.191 65.006 C 203.921 65.003, 203.129 64.601, 203.430 64.113 C 204.187 62.889, 200.676 63.260, 199.765 64.500 C 199.361 65.050, 199.024 64.487, 199.015 63.250 C 199.007 62.013, 199.563 60.993, 200.250 60.985 C 201.108 60.974, 201.044 60.681, 200.048 60.051 C 199.249 59.545, 198.237 59.354, 197.798 59.625 C 197.359 59.896, 197 59.191, 197 58.059 C 197 56.927, 196.564 56, 196.031 56 C 195.499 56, 195.308 56.788, 195.607 57.750 C 196.120 59.400, 196.087 59.401, 195.038 57.771 C 194.425 56.820, 194.054 55.877, 194.212 55.675 C 194.370 55.473, 193.882 54.563, 193.128 53.654 C 192.236 52.579, 192.148 52, 192.878 52 C 193.495 52, 194 51.325, 194 50.500 C 194 48.736, 195.158 48.558, 196.687 50.087 C 197.470 50.870, 197.967 50.863, 198.461 50.062 C 198.847 49.439, 198.587 49.071, 197.870 49.225 C 197.166 49.376, 196.542 48.825, 196.482 48 C 196.328 45.878, 199.049 42.911, 200.384 43.745 C 202.331 44.964, 204 44.867, 204 43.537 C 204 42.829, 205.380 41.974, 207.066 41.637 C 208.753 41.299, 209.854 40.573, 209.514 40.023 C 209.163 39.455, 209.532 39.267, 210.370 39.588 C 211.181 39.900, 212.836 39.623, 214.049 38.974 C 215.754 38.061, 216.424 38.068, 217.002 39.004 C 217.482 39.780, 217.974 39.851, 218.376 39.201 C 218.720 38.644, 219.972 38.441, 221.157 38.751 C 222.809 39.183, 223.125 38.986, 222.510 37.908 C 221.860 36.769, 221.964 36.739, 223.053 37.750 C 224.792 39.363, 226.302 39.363, 225.485 37.750 C 225.137 37.063, 225.560 37.374, 226.426 38.441 C 227.292 39.509, 228 39.942, 228 39.404 C 228 38.865, 229.812 38.353, 232.027 38.264 C 234.897 38.150, 235.860 38.448, 235.380 39.302 C 234.878 40.195, 235.017 40.214, 235.926 39.377 C 237.335 38.080, 249.309 38.711, 249.833 40.110 C 250.017 40.600, 250.606 41, 251.142 41 C 251.679 41, 251.840 40.550, 251.500 40 C 251.160 39.450, 251.610 39, 252.500 39 C 253.390 39, 253.840 39.450, 253.500 40 C 253.160 40.550, 253.359 41, 253.941 41 C 254.523 41, 255 40.646, 255 40.214 C 255 39.782, 255.867 39.429, 256.927 39.429 C 257.986 39.429, 258.597 39.843, 258.285 40.349 C 257.964 40.868, 259.085 41.068, 260.858 40.808 C 262.586 40.554, 264 40.767, 264 41.280 C 264 41.794, 264.644 41.967, 265.432 41.665 C 267.728 40.783, 275.622 44.975, 273.902 46.162 C 272.886 46.864, 273.114 46.959, 274.730 46.505 C 277.585 45.702, 281.120 47.356, 278.609 48.320 C 277.678 48.677, 276.987 48.424, 276.970 47.719 C 276.951 46.991, 276.573 47.126, 276.029 48.054 C 275.002 49.809, 275.142 51.836, 276.433 53.905 C 276.967 54.761, 276.937 55.079, 276.357 54.720 C 274.617 53.645, 272.491 55.682, 273.759 57.209 C 274.968 58.666, 274.898 58.693, 268.244 59.354 C 262.280 59.947, 263.861 60.709, 272.226 61.273 C 286.097 62.209, 308 71.001, 308 75.633 C 308 76.385, 308.566 77, 309.257 77 C 310.910 77, 316.194 82.817, 320.685 89.581 C 322.664 92.562, 324.696 95, 325.201 95 C 325.705 95, 325.840 95.450, 325.500 96 C 325.160 96.550, 325.327 97, 325.870 97 C 326.413 97, 327.592 99.523, 328.488 102.607 C 329.385 105.692, 330.363 107.971, 330.661 107.672 C 331.575 106.758, 327.989 97.067, 322.456 85.500 C 316.125 72.262, 314.508 64.997, 315.391 53.756 C 315.747 49.215, 316.313 39.305, 316.648 31.733 L 317.257 17.965 314.096 11.544 C 307.233 -2.398, 301.374 -2.734, 286.500 9.961 C 285.400 10.899, 280.743 13.836, 276.151 16.487 L 267.803 21.306 256.651 19.634 C 226.833 15.166, 179.734 14.919, 143.823 19.043 L 124.146 21.302 119.323 18.313 C 116.670 16.668, 111.350 13.450, 107.500 11.162 C 103.650 8.873, 99.037 5.818, 97.250 4.372 C 95.463 2.926, 94 2.251, 94 2.872 C 94 3.492, 93.325 4, 92.500 4 C 91.667 4, 91 3.111, 91 2 C 91 -0.740, 89.199 -0.512, 83.801 2.911 M 300.137 4.807 C 299.038 6.351, 296.469 10.964, 294.428 15.057 C 292.388 19.151, 289.882 23.694, 288.859 25.154 C 287.837 26.614, 287 28.494, 287 29.332 C 287 30.169, 285.895 31.724, 284.545 32.786 L 282.090 34.717 284.609 36.908 C 289.265 40.956, 296.259 42.373, 297.365 39.491 C 297.684 38.661, 298.519 38.098, 299.222 38.241 C 299.925 38.383, 300.387 37.938, 300.250 37.250 C 300.113 36.563, 300.542 36.113, 301.205 36.250 C 301.867 36.388, 302.450 35.825, 302.500 35 C 302.550 34.175, 303.133 33.612, 303.795 33.750 C 304.458 33.887, 305 33.325, 305 32.500 C 305 31.675, 305.477 31, 306.059 31 C 306.641 31, 306.869 30.597, 306.565 30.104 C 306.260 29.612, 307.134 26.227, 308.506 22.582 C 311.534 14.536, 311.593 12.485, 308.923 8.105 C 304.727 1.223, 303.119 0.619, 300.137 4.807 M 95.413 10.595 C 95.565 12.022, 96.133 13.485, 96.675 13.845 C 97.218 14.205, 98.717 16.637, 100.008 19.250 C 102.215 23.717, 104.186 25.127, 105.423 23.124 C 106.402 21.541, 97.636 8, 95.633 8 C 95.360 8, 95.261 9.168, 95.413 10.595 M 115.337 66.750 C 115.588 67.162, 113.575 67.546, 110.864 67.603 C 80.243 68.241, 51.144 123.144, 70.936 142.936 C 72.111 144.111, 72.813 145.493, 72.496 146.007 C 69.619 150.662, 89.262 167.698, 102.761 172.255 C 137.528 183.992, 178.003 155.365, 177.999 119.040 C 177.999 108.497, 165.550 84.052, 157.169 78.137 C 149.182 72.500, 132.824 66.286, 129.090 67.471 C 128.033 67.807, 126.879 67.613, 126.525 67.041 C 126.171 66.468, 123.407 66, 120.382 66 C 117.357 66, 115.087 66.338, 115.337 66.750 M 253.438 69.035 C 217.134 80.547, 204.418 125.824, 229.392 154.653 C 245.775 173.564, 274.012 178.604, 297.411 166.793 C 303.409 163.765, 318 150.007, 318 147.379 C 318 146.705, 319.062 144.881, 320.359 143.327 C 331.971 129.415, 326.694 100.866, 309.150 82.680 C 296.010 69.059, 271.947 63.165, 253.438 69.035 M 271 69.184 C 271 69.950, 274.315 70.471, 276.472 70.044 C 277.007 69.939, 276.582 70.805, 275.528 71.969 C 273.895 73.773, 273.862 73.990, 275.306 73.436 C 276.502 72.977, 277.045 73.332, 277.152 74.643 C 277.236 75.664, 277.409 76.950, 277.537 77.500 C 277.665 78.050, 277.821 79.063, 277.885 79.750 C 277.948 80.438, 278.675 81, 279.500 81 C 280.325 81, 281 81.702, 281 82.559 C 281 83.515, 280.537 83.832, 279.803 83.378 C 279.145 82.972, 279.582 84.008, 280.774 85.682 C 281.966 87.356, 282.654 89.012, 282.304 89.363 C 281.953 89.713, 282.240 90, 282.940 90 C 283.662 90, 283.964 90.651, 283.638 91.500 C 283.282 92.430, 283.643 93, 284.590 93 C 285.431 93, 285.840 93.450, 285.500 94 C 285.160 94.550, 285.359 95, 285.941 95 C 286.523 95, 287 95.915, 287 97.032 C 287 98.150, 287.873 99.387, 288.940 99.782 C 290.722 100.441, 291 100.825, 291 102.622 C 291 102.965, 291.788 102.627, 292.750 101.872 C 294.298 100.658, 294.357 100.683, 293.259 102.092 C 292.576 102.968, 292.351 104.052, 292.759 104.502 C 293.166 104.952, 292.938 104.997, 292.250 104.601 C 291.563 104.206, 291 104.328, 291 104.874 C 291 105.419, 291.900 106.151, 293 106.500 C 294.100 106.849, 295 107.610, 295 108.190 C 295 108.875, 295.495 108.834, 296.411 108.074 C 297.491 107.177, 297.996 107.185, 298.565 108.106 C 299.010 108.825, 298.887 109.048, 298.261 108.661 C 297.625 108.268, 297.269 108.999, 297.356 110.517 C 297.442 112.012, 297.983 112.835, 298.699 112.561 C 299.377 112.301, 299.679 112.674, 299.393 113.420 C 299.095 114.196, 299.835 114.997, 301.193 115.369 C 303.111 115.894, 303.247 116.166, 302 116.985 C 300.720 117.825, 300.760 117.972, 302.275 117.985 C 303.251 117.993, 304.461 119.081, 304.963 120.403 C 305.466 121.724, 306.362 123.106, 306.955 123.472 C 307.548 123.838, 307.762 124.577, 307.430 125.113 C 307.099 125.649, 307.338 126.703, 307.962 127.455 C 308.756 128.411, 308.777 129.020, 308.032 129.480 C 307.447 129.842, 307.226 130.557, 307.543 131.069 C 307.859 131.581, 307.664 132, 307.110 132 C 306.517 132, 306.699 133.429, 307.551 135.468 C 308.348 137.375, 309 139.850, 309 140.968 C 309 142.086, 309.477 143, 310.059 143 C 310.641 143, 310.906 143.342, 310.648 143.761 C 309.552 145.533, 312.664 148.110, 313.982 146.522 C 314.666 145.697, 315.637 145.276, 316.138 145.585 C 316.639 145.895, 316.965 145.778, 316.861 145.324 C 316.530 143.880, 318.218 138.658, 320.683 133.500 C 330.848 112.233, 312.997 79.499, 286.602 71.002 C 281.509 69.362, 271 68.138, 271 69.184 M 267.186 96.828 C 278.939 101.023, 286.882 110.139, 288.683 121.500 C 288.858 122.600, 289.168 124.400, 289.373 125.500 C 289.577 126.600, 289.802 128.118, 289.872 128.872 C 289.975 129.974, 290.294 130.001, 291.489 129.009 C 292.308 128.329, 292.652 127.262, 292.254 126.637 C 291.856 126.012, 291.487 124.375, 291.434 123 C 291.014 112.170, 281.181 99.616, 270.672 96.495 C 263.903 94.485, 261.314 94.732, 267.186 96.828 M 59 111 C 59 112.800, 58.276 113.017, 51.750 113.173 L 44.500 113.345 51 113.923 L 57.500 114.500 53.290 116.750 C 50.896 118.029, 47.317 119, 44.995 119 L 40.909 119 41.595 122.750 C 42.460 127.483, 43.752 131, 44.626 131 C 46.845 131, 56.310 125.337, 56.940 123.632 C 57.503 122.111, 58.022 123.367, 58.970 128.545 C 59.671 132.370, 61.242 138.425, 62.461 142 L 64.678 148.500 62.384 161.891 C 61.122 169.256, 59.778 180.200, 59.398 186.211 C 58.817 195.389, 58.335 197.649, 56.389 200.320 C 39.964 222.863, 39.566 254.092, 55.258 288.954 C 60.439 300.464, 68.356 312.758, 70.235 312.213 C 70.779 312.054, 71.772 312.674, 72.442 313.589 C 73.412 314.917, 74.076 315.030, 75.724 314.148 C 77.323 313.292, 78.057 313.364, 78.972 314.467 C 79.816 315.483, 80.820 315.639, 82.475 315.010 C 83.750 314.525, 84.991 314.324, 85.231 314.564 C 85.470 314.804, 85.667 314.349, 85.667 313.554 C 85.667 312.430, 85.232 312.341, 83.717 313.152 C 82.276 313.923, 81.413 313.841, 80.411 312.840 C 79.270 311.699, 79.566 311.485, 82.278 311.492 C 84.652 311.498, 85.468 311.068, 85.379 309.857 C 85.243 308.007, 88.163 307.990, 88.779 309.837 C 89.201 311.104, 91.074 311.471, 90.882 310.250 C 90.615 308.562, 91.046 307.007, 91.750 307.118 C 94.209 307.507, 95.334 306.788, 93.500 306 L 91.500 305.141 93.500 304.952 C 94.600 304.848, 96.151 304.856, 96.946 304.970 C 98.165 305.145, 98.182 304.924, 97.054 303.565 C 96.317 302.678, 96.004 301.663, 96.357 301.309 C 96.711 300.956, 97 301.192, 97 301.833 C 97 302.475, 97.498 303, 98.107 303 C 98.716 303, 98.960 302.338, 98.649 301.529 C 98.339 300.720, 98.741 299.402, 99.542 298.600 C 100.344 297.799, 101 296.675, 101 296.103 C 101 295.529, 101.785 295.357, 102.750 295.719 C 104.337 296.313, 104.361 296.200, 103 294.500 C 101.661 292.826, 101.666 292.688, 103.049 293.204 C 104.277 293.663, 104.585 293.027, 104.535 290.142 C 104.499 288.139, 104.865 285.536, 105.347 284.357 C 105.959 282.860, 105.587 280.511, 104.112 276.569 C 101.183 268.742, 101.460 268.592, 105.937 275.580 C 108.080 278.924, 110.926 282.377, 112.263 283.253 C 114.981 285.034, 117.491 292.600, 118.634 302.462 C 119.508 310.005, 120.829 307.373, 120.930 297.886 C 121.069 284.758, 116.549 270.920, 111.493 268.997 C 110.056 268.451, 109.127 267.604, 109.429 267.115 C 109.731 266.626, 109.222 265.613, 108.297 264.863 C 106.854 263.693, 106.724 263.712, 107.382 265 C 107.834 265.885, 107.564 265.787, 106.722 264.761 C 104.635 262.216, 97.884 259.570, 97.025 260.960 C 96.296 262.139, 93 261.337, 93 259.980 C 93 259.537, 95.152 256.548, 97.782 253.337 C 107.945 240.933, 111 233.647, 111 221.818 C 111 214.831, 112.352 212.817, 113.731 217.750 C 114.612 220.901, 114.527 232.642, 113.593 236.740 L 112.964 239.500 115.436 236.748 C 120.056 231.604, 121.976 211.722, 118.501 205.001 C 116.947 201.997, 104.632 192.525, 103.272 193.288 C 102.847 193.527, 101.150 193.130, 99.500 192.406 C 97.850 191.682, 97.092 191.070, 97.816 191.045 C 98.539 191.020, 100.114 191.515, 101.316 192.146 C 103.484 193.283, 103.486 193.275, 101.595 191.146 C 99.900 189.236, 99.872 188.986, 101.345 188.875 C 104.229 188.657, 104.818 188.515, 105.448 187.885 C 105.787 187.547, 107.863 187.478, 110.063 187.732 C 112.262 187.986, 114.610 187.758, 115.281 187.225 C 115.951 186.693, 117.287 186.384, 118.250 186.540 C 119.241 186.700, 120 186.195, 120 185.376 C 120 184.240, 120.428 184.159, 122 185 C 123.294 185.693, 124 185.716, 124 185.067 C 124 184.514, 124.663 184.317, 125.474 184.629 C 126.285 184.940, 127.667 184.476, 128.546 183.597 C 129.424 182.719, 131.214 182, 132.523 182 C 133.833 182, 139.538 179.649, 145.202 176.775 C 166.661 165.888, 180.665 146.886, 183.503 124.805 C 184.102 120.139, 184.132 120.107, 188.303 119.697 C 192.043 119.330, 191.961 119.296, 187.554 119.392 L 182.608 119.500 181.405 126 C 172.230 175.574, 112.943 196.013, 76.679 162.105 C 70.788 156.596, 66 149.893, 66 147.153 C 66 146.060, 65.100 143.066, 64 140.500 C 62.900 137.934, 62 134.821, 62 133.584 C 62 132.346, 61.663 130.996, 61.250 130.584 C 60.162 129.496, 59.752 125.535, 59.820 116.750 C 59.852 112.487, 59.681 109, 59.439 109 C 59.198 109, 59 109.900, 59 111 M 331.391 116.500 C 331.405 124.222, 330.998 127.832, 329.758 131 C 329.435 131.825, 328.938 134.171, 328.654 136.213 C 324.111 168.884, 277.899 188.802, 245 172.270 C 228.453 163.955, 208.923 135.287, 210.448 121.550 C 210.665 119.591, 210.292 119.522, 202.088 119.992 L 193.500 120.483 201.162 120.782 L 208.823 121.081 209.481 126.290 C 210.405 133.609, 211.870 137.994, 214.624 141.683 C 215.931 143.434, 217 145.924, 217 147.216 C 217 148.594, 219.279 152.311, 222.516 156.210 C 227.527 162.247, 227.847 162.914, 226.016 163.495 C 221.323 164.984, 230.070 175.958, 239.527 180.446 C 241.616 181.437, 244.451 183.430, 245.826 184.874 C 247.202 186.318, 248.002 186.938, 247.605 186.250 C 247.207 185.563, 247.359 185, 247.941 185 C 248.523 185, 249 185.354, 249 185.787 C 249 186.220, 249.972 186.648, 251.160 186.737 C 252.348 186.827, 253.634 187.408, 254.018 188.029 C 254.881 189.426, 265.988 190.918, 276 190.983 C 286.422 191.049, 286.912 191.634, 281.460 197.488 C 273.935 205.569, 270.799 225.627, 275.829 233.500 C 276.991 235.317, 277.072 235.198, 276.718 232.190 L 276.329 228.879 278.620 231.690 C 281.216 234.874, 287 246.411, 287 248.404 C 287 249.585, 294.160 258.560, 296.357 260.133 C 296.843 260.482, 295.499 260.990, 293.370 261.263 C 287.242 262.048, 284.683 262.848, 282.001 264.821 C 278.964 267.054, 272.401 276.551, 271.511 280 C 271.101 281.586, 271.807 280.903, 273.441 278.134 C 276.910 272.253, 281.793 266.181, 284.007 264.996 C 287.254 263.259, 285.683 266.714, 281.217 271.137 C 276.282 276.023, 273.298 281.808, 272.520 288 L 271.954 292.500 274.104 287.269 C 275.341 284.259, 276.696 282.312, 277.297 282.683 C 277.938 283.080, 278.096 282.692, 277.706 281.676 C 277.325 280.684, 277.535 280.119, 278.230 280.262 C 278.868 280.393, 279.698 279.150, 280.076 277.500 C 280.454 275.850, 280.817 274.853, 280.882 275.285 C 280.947 275.717, 281.935 275.570, 283.078 274.958 C 284.311 274.298, 284.925 273.247, 284.589 272.371 C 284.271 271.542, 284.456 271.164, 285.011 271.507 C 286.244 272.269, 286.318 275, 285.107 275 C 283.937 275, 283.148 277.164, 281.560 284.731 C 280.841 288.158, 280.644 290.720, 281.123 290.424 C 281.609 290.123, 281.603 290.914, 281.109 292.213 C 280.235 294.513, 280.280 295.684, 281.546 303.500 C 281.902 305.700, 282.225 308.063, 282.264 308.750 C 282.302 309.438, 282.694 310, 283.135 310 C 283.576 310, 283.678 310.675, 283.362 311.500 C 283.036 312.349, 283.338 313, 284.060 313 C 284.760 313, 285.032 313.301, 284.664 313.669 C 284.297 314.037, 284.700 315.116, 285.562 316.068 C 286.423 317.020, 287.165 319.086, 287.209 320.659 C 287.324 324.684, 293.171 329.266, 296.551 327.980 C 297.943 327.451, 299.158 327.447, 299.481 327.969 C 300.242 329.200, 298.261 330.279, 296.845 329.405 C 296.178 328.992, 295.961 329.127, 296.330 329.725 C 296.681 330.293, 297.876 330.996, 298.986 331.286 C 300.095 331.576, 300.751 331.405, 300.442 330.907 C 300.134 330.408, 300.610 330, 301.500 330 C 302.390 330, 302.840 329.550, 302.500 329 C 302.160 328.450, 302.789 328, 303.898 328 C 308.589 328, 324.251 308.986, 332.914 292.774 C 351.262 258.436, 352.253 223.593, 335.497 201.969 C 330.170 195.094, 329.293 191.898, 328.095 175 C 327.568 167.575, 326.475 159.653, 325.664 157.395 C 324.306 153.611, 324.345 152.945, 326.163 148.895 C 328.231 144.287, 331.373 133.216, 332.484 126.626 C 333.118 122.865, 333.181 122.813, 334.625 124.876 C 335.444 126.044, 336.752 127, 337.533 127 C 338.313 127, 340.425 127.898, 342.226 128.996 C 347.704 132.336, 348.157 131.979, 349.515 123.250 L 350.176 119 346.338 118.991 C 344.227 118.986, 340.250 117.888, 337.500 116.550 L 332.500 114.119 339.500 113.756 L 346.500 113.392 339.320 113.196 C 332.725 113.016, 332.108 112.817, 331.758 110.750 C 331.549 109.513, 331.383 112.100, 331.391 116.500 M 188.646 136.648 C 180.494 142.999, 181.748 151.354, 193.702 170.315 C 197.374 176.139, 205.382 165.379, 209.585 148.976 C 213.153 135.048, 200.364 127.518, 188.646 136.648 M 239.655 139.750 C 243.967 146.719, 251.629 153.034, 255.700 152.973 C 256.690 152.959, 254.834 151.501, 251.576 149.734 C 247.651 147.605, 244.498 144.914, 242.232 141.760 C 238.507 136.575, 236.930 135.345, 239.655 139.750 M 200.549 180.494 C 197.394 183.600, 194.272 185.935, 193.614 185.682 C 192.955 185.429, 191.572 185.840, 190.540 186.594 C 189.044 187.688, 188.356 187.717, 187.140 186.733 C 186.060 185.859, 185.822 185.844, 186.324 186.681 C 186.714 187.330, 186.615 188.120, 186.104 188.436 C 185.593 188.752, 185.294 187.924, 185.440 186.598 C 185.666 184.539, 185.348 184.251, 183.272 184.627 C 181.488 184.951, 181.045 184.726, 181.612 183.784 C 182.099 182.973, 181.689 183.053, 180.500 184 C 179.464 184.825, 178.884 185.050, 179.213 184.500 C 179.541 183.950, 178.784 183.500, 177.532 183.500 C 175.277 183.500, 175.115 185.665, 177.261 187.111 C 177.760 187.447, 177.460 187.993, 176.596 188.325 C 175.731 188.657, 175.131 188.607, 175.262 188.214 C 175.393 187.821, 175.050 187.500, 174.500 187.500 C 173.950 187.500, 173.624 187.871, 173.775 188.324 C 173.926 188.778, 173.608 188.876, 173.068 188.542 C 172.529 188.209, 172.323 187.321, 172.612 186.569 C 172.900 185.817, 172.586 184.862, 171.914 184.447 C 171.116 183.954, 170.948 184.107, 171.432 184.889 C 171.839 185.549, 171.448 187.193, 170.563 188.544 C 169.678 189.895, 169.244 191, 169.599 191 C 169.954 191, 169.689 191.670, 169.009 192.489 C 168.329 193.308, 167.405 193.751, 166.956 193.473 C 166.506 193.195, 165.870 193.401, 165.542 193.931 C 165.211 194.468, 165.845 194.723, 166.973 194.505 C 168.088 194.290, 169 194.539, 169 195.057 C 169 195.576, 168.325 196, 167.500 196 C 166.675 196, 166 196.477, 166 197.059 C 166 197.641, 165.625 197.886, 165.167 197.603 C 163.304 196.452, 164.497 200.406, 166.667 202.576 C 167.950 203.859, 168.968 205.717, 168.930 206.705 C 168.866 208.326, 168.786 208.312, 168.102 206.566 C 167.582 205.237, 167.116 205.003, 166.613 205.816 C 166.211 206.467, 164.446 207.007, 162.691 207.015 C 160.514 207.026, 159.933 207.305, 160.861 207.893 C 161.609 208.367, 162.997 208.552, 163.944 208.304 C 165.020 208.023, 165.667 208.428, 165.667 209.383 C 165.667 210.224, 165.215 210.633, 164.663 210.292 C 164.056 209.917, 163.925 210.361, 164.330 211.418 C 164.699 212.378, 165 213.338, 165 213.550 C 165 214.236, 168.451 212.738, 170.083 211.344 C 171.421 210.201, 171.667 210.216, 171.667 211.440 C 171.667 212.237, 171.404 212.865, 171.083 212.836 C 169.562 212.699, 166 214.338, 166 215.176 C 166 215.694, 165.480 215.797, 164.845 215.405 C 164.184 214.996, 163.960 215.127, 164.322 215.711 C 164.668 216.273, 166.088 216.515, 167.476 216.249 C 169.062 215.946, 170 216.221, 170 216.990 C 170 217.667, 169.330 217.957, 168.500 217.638 C 167.675 217.322, 167 217.499, 167 218.031 C 167 218.564, 167.675 219, 168.500 219 C 169.325 219, 170.053 219.787, 170.118 220.750 C 170.183 221.713, 170.580 221.150, 171 219.500 L 171.763 216.500 171.882 219.250 C 171.967 221.240, 172.523 222, 173.893 222 C 174.934 222, 176.072 222.744, 176.421 223.653 C 176.993 225.145, 177.201 225.121, 178.542 223.403 C 179.360 222.357, 179.969 221.950, 179.896 222.500 C 179.510 225.405, 180.009 226.534, 181 225 C 181.862 223.667, 181.973 223.667, 182 225 C 182.027 226.333, 182.136 226.333, 182.979 225 C 183.799 223.703, 184.169 223.763, 185.714 225.445 C 187.441 227.326, 187.436 227.342, 185.586 225.945 C 183.819 224.611, 183.752 224.653, 184.706 226.500 C 185.275 227.600, 185.613 229.290, 185.458 230.255 C 185.303 231.220, 186.136 232.682, 187.310 233.505 C 189.701 235.179, 193 235.500, 193 234.057 C 193 233.539, 191.988 233.297, 190.750 233.519 C 188.576 233.910, 188.565 233.875, 190.427 232.472 C 191.487 231.674, 192.411 231.129, 192.480 231.260 C 192.549 231.392, 193.448 232.850, 194.477 234.500 C 196.046 237.013, 196.078 237.277, 194.675 236.128 C 193.233 234.946, 193 234.980, 193 236.378 C 193 237.270, 193.450 238.056, 194 238.125 C 194.550 238.194, 195.563 238.306, 196.250 238.375 C 196.938 238.444, 197.507 238.950, 197.515 239.500 C 197.546 241.473, 199.229 243.126, 200.653 242.580 C 201.451 242.273, 201.858 242.421, 201.558 242.907 C 200.855 244.043, 203.846 245.213, 205.245 244.349 C 205.921 243.931, 206.010 244.174, 205.490 245.015 C 204.891 245.985, 205.132 246.164, 206.388 245.681 C 207.353 245.311, 207.851 245.432, 207.526 245.957 C 206.983 246.837, 212.878 248.982, 215.872 248.994 C 216.989 248.999, 217.009 249.285, 215.980 250.524 C 215.284 251.362, 214.482 251.815, 214.197 251.530 C 213.912 251.245, 213.188 251.830, 212.589 252.831 C 211.990 253.831, 210.037 256.842, 208.250 259.521 C 204.673 264.882, 203.870 267.582, 206.960 263.861 L 208.920 261.500 207.210 265.111 C 206.270 267.098, 205.262 268.357, 204.971 267.909 C 204.679 267.462, 203.329 267.647, 201.971 268.321 C 197.879 270.350, 197.902 277.506, 202 277.199 C 202.275 277.179, 202.456 279.713, 202.403 282.831 C 202.333 286.899, 202.419 287.299, 202.707 284.250 C 202.929 281.913, 203.493 280, 203.961 280 C 204.430 280, 204.559 280.970, 204.249 282.156 C 203.829 283.763, 204.020 284.106, 204.997 283.502 C 205.854 282.972, 206.068 283.081, 205.614 283.816 C 204.783 285.160, 206.950 289.599, 210.489 293.805 C 212.294 295.949, 212.702 297.066, 211.871 297.580 C 211.085 298.066, 210.934 297.840, 211.420 296.905 C 211.820 296.132, 211.417 296.400, 210.524 297.500 C 209.074 299.285, 209.066 299.535, 210.450 299.823 C 211.302 300.001, 212.029 301.126, 212.063 302.323 L 212.127 304.500 213.031 302.250 C 213.529 301.012, 214.256 300, 214.647 300 C 215.818 300, 222.356 302.171, 224.446 303.254 C 225.516 303.808, 229.116 304.367, 232.446 304.495 C 236.843 304.664, 237.142 304.612, 233.537 304.304 C 229.771 303.983, 228.928 303.631, 230.037 302.846 C 231.221 302.009, 231.153 301.924, 229.681 302.401 C 228.429 302.806, 227.053 302.028, 225.265 299.903 C 223.198 297.446, 222.117 296.927, 219.970 297.356 C 213.532 298.644, 201.944 279.422, 208 277.500 C 209.100 277.151, 210 276.010, 210 274.964 C 210 273.647, 209.517 273.248, 208.430 273.665 C 206.601 274.367, 207.198 269.092, 209.620 263.144 C 210.372 261.298, 210.731 259.374, 210.419 258.869 C 210.107 258.364, 210.228 258.074, 210.689 258.225 C 211.150 258.376, 213.209 256.719, 215.264 254.542 L 219 250.583 219 254.225 C 219 257.431, 218.670 257.917, 216.250 258.284 C 214.067 258.614, 214.283 258.731, 217.297 258.850 L 221.094 259 217.917 262.954 C 209.851 272.991, 217.672 296.411, 228.173 293.665 C 229.179 293.402, 229.751 293.595, 229.442 294.093 C 229.134 294.592, 230.956 295, 233.491 295 C 238.239 295, 244.468 292.566, 243.544 291.071 C 243.257 290.606, 243.692 289.671, 244.511 288.991 C 245.330 288.311, 246 288.090, 246 288.500 C 246 288.910, 246.648 288.707, 247.441 288.049 C 248.233 287.392, 248.606 286.138, 248.271 285.263 C 247.890 284.271, 248.066 283.923, 248.737 284.337 C 249.429 284.765, 249.637 284.200, 249.320 282.751 C 248.939 281.013, 249.058 280.830, 249.845 281.948 C 251.063 283.681, 250.380 276.210, 248.891 271.523 C 248.209 269.373, 248.249 268.849, 249.036 269.636 C 249.636 270.236, 250.495 272.926, 250.946 275.613 C 251.601 279.521, 251.788 279.851, 251.882 277.261 C 251.947 275.479, 251.156 271.801, 250.125 269.087 L 248.250 264.153 251.016 259.976 L 253.781 255.799 255.891 261.437 C 257.051 264.538, 258.052 268.296, 258.116 269.788 C 258.188 271.480, 258.404 271.842, 258.689 270.750 C 258.941 269.788, 259.623 269, 260.204 269 C 261.768 269, 260.511 262.797, 257.706 256.669 C 254.874 250.482, 249.482 244.006, 247.146 243.985 C 245.758 243.972, 245.728 243.825, 246.952 243.051 C 247.751 242.545, 248.833 242.397, 249.357 242.720 C 249.881 243.044, 250.009 242.824, 249.643 242.231 C 249.277 241.639, 249.920 239.555, 251.073 237.601 C 252.563 235.075, 253.001 233.101, 252.587 230.774 C 252.147 228.297, 252.231 227.987, 252.932 229.500 C 253.442 230.600, 253.925 231.275, 254.006 231 C 254.398 229.665, 255.004 226.269, 255.206 224.274 C 255.331 223.050, 255.972 221.841, 256.631 221.588 C 257.386 221.298, 257.756 219.227, 257.630 215.990 C 257.519 213.165, 257.783 210.634, 258.215 210.367 C 258.647 210.100, 259 210.359, 259 210.941 C 259 214.535, 264.137 211.707, 266.498 206.813 C 269.766 200.038, 266.429 194.363, 260.511 196.634 C 259.680 196.953, 259 196.791, 259 196.274 C 259 195.756, 258.438 195.271, 257.750 195.195 C 252.740 194.643, 240.385 191.611, 239.888 190.812 C 239.552 190.271, 239.102 189.939, 238.888 190.073 C 237.707 190.814, 230.471 188.585, 228.698 186.933 C 227.556 185.869, 225.920 185.112, 225.061 185.250 C 224.202 185.387, 223.613 184.938, 223.750 184.250 C 223.888 183.563, 223.550 183, 223 183 C 222.450 183, 221.971 183.563, 221.937 184.250 C 221.902 184.938, 221.447 184.436, 220.927 183.136 C 220.137 181.164, 219.729 180.980, 218.467 182.027 C 217.219 183.063, 217.056 183.018, 217.535 181.770 C 217.871 180.895, 217.438 179.998, 216.506 179.640 C 215.431 179.228, 215.104 179.435, 215.520 180.261 C 215.864 180.943, 215.069 180.245, 213.754 178.712 C 212.081 176.760, 210.829 176.129, 209.581 176.607 C 208.560 176.999, 207.475 176.769, 207.043 176.069 C 206.523 175.229, 204.497 176.610, 200.549 180.494 M 145.782 207.340 C 145.937 214.578, 146.544 221.453, 147.130 222.617 C 147.752 223.853, 148.051 228.951, 147.848 234.868 C 147.657 240.442, 147.849 245.002, 148.276 245.001 C 148.702 245, 149.012 233.430, 148.965 219.289 C 148.910 202.852, 148.540 194.105, 147.939 195.039 C 147.257 196.100, 146.795 196.182, 146.250 195.340 C 145.838 194.702, 145.627 200.102, 145.782 207.340 M 209 195.893 C 209 196.903, 211.422 198, 213.653 198 C 214.473 198, 215.822 198.679, 216.652 199.509 C 217.482 200.339, 218.617 200.737, 219.174 200.392 C 219.731 200.048, 218.299 198.694, 215.991 197.383 C 211.643 194.913, 209 194.350, 209 195.893 M 283.766 200.306 C 279.363 204.348, 275.044 211.625, 275.044 215 C 275.044 215.825, 275.900 214.614, 276.946 212.310 C 277.993 210.005, 280.583 206.180, 282.703 203.810 C 290.586 194.994, 290.985 193.678, 283.766 200.306 M 147.382 210.500 C 147.384 217.100, 147.546 219.670, 147.741 216.211 C 147.937 212.752, 147.936 207.352, 147.738 204.211 C 147.540 201.070, 147.380 203.900, 147.382 210.500 M 244.300 203.108 C 245.290 203.684, 247.427 205.988, 249.050 208.228 C 250.672 210.468, 252 211.784, 252 211.153 C 252 209.583, 245.039 201.993, 243.634 202.030 C 243.010 202.047, 243.310 202.532, 244.300 203.108 M 236 246.005 C 233.525 246.993, 229.137 248.104, 226.250 248.473 C 220.609 249.194, 219.980 250.188, 221.927 255.307 C 222.836 257.698, 222.950 257.720, 227.826 256.455 C 230.996 255.633, 234.102 255.459, 236.392 255.976 C 238.369 256.421, 239.769 256.435, 239.504 256.007 C 239.239 255.578, 239.888 255.001, 240.947 254.724 C 242.859 254.224, 242.856 250, 240.942 250 C 239.187 250, 239.045 251.928, 240.729 252.908 C 241.703 253.475, 241.993 253.953, 241.372 253.970 C 238.290 254.053, 237.605 248.652, 240.267 245.250 C 240.805 244.563, 241.077 244.047, 240.872 244.104 C 240.668 244.161, 238.475 245.016, 236 246.005 M 243 247.941 C 243 248.459, 243.422 249.142, 243.937 249.461 C 248.443 252.246, 247.924 258.682, 243.333 256.937 C 240.377 255.813, 240.339 257.057, 243.250 259.677 C 245.524 261.724, 249.084 263.970, 247.810 262.554 C 247.431 262.132, 248.030 260.823, 249.142 259.644 C 253.152 255.392, 253.240 254.343, 249.907 250.547 C 247.027 247.267, 243 245.748, 243 247.941 M 144.200 249.200 C 142.407 250.993, 142.743 254.968, 144.750 255.708 C 145.713 256.064, 146.803 256.808, 147.174 257.363 C 148.520 259.378, 151 255.822, 151 251.878 C 151 247.747, 147.164 246.236, 144.200 249.200 M 268 251.789 C 268 254.268, 271.717 259.486, 273.270 259.187 C 275.778 258.703, 275.398 256.755, 272.195 253.687 C 269.356 250.967, 268 250.353, 268 251.789 M 227.500 260.480 C 221.515 263.306, 216.623 270.547, 218.812 273.337 C 220.286 275.216, 221.152 280, 220.019 280 C 217.758 280, 219.228 283.526, 222.974 287.090 C 234.080 297.655, 251.541 288.519, 248.168 273.907 C 247.551 271.233, 247.303 268.247, 247.617 267.272 C 248.059 265.903, 247.965 265.814, 247.204 266.882 C 246.230 268.248, 244.257 264.791, 244.818 262.703 C 244.935 262.264, 244.462 261.997, 243.766 262.110 C 242.075 262.384, 238.909 260.958, 239.405 260.145 C 240.204 258.835, 230.399 259.111, 227.500 260.480 M 150.661 266.500 C 145.641 269.051, 144.483 272.447, 144.753 283.830 C 145.149 300.506, 146.878 301.382, 176.659 300 L 187.430 299.500 189.715 296.102 C 196.768 285.614, 191.280 265.764, 181.556 266.585 C 178.284 266.861, 178.067 266.789, 180.434 266.214 C 182.047 265.821, 176.451 265.500, 167.998 265.500 C 159.545 265.500, 151.743 265.950, 150.661 266.500 M 260.737 276.250 C 261.418 284.642, 262 284.834, 262 276.667 C 262 273, 261.602 270, 261.115 270 C 260.628 270, 260.458 272.813, 260.737 276.250 M 259 292.122 C 259 294.715, 258.758 295.044, 257.572 294.060 C 255.719 292.522, 250.480 295.056, 249.752 297.842 C 249.273 299.672, 249.382 299.688, 252.046 298.159 C 253.584 297.276, 254.677 296.286, 254.474 295.958 C 254.271 295.630, 255.432 295.557, 257.053 295.794 C 259.852 296.205, 260 296.045, 260 292.613 C 260 290.626, 259.775 289, 259.500 289 C 259.225 289, 259 290.405, 259 292.122 M 203.622 297.980 C 204.197 305.876, 204.508 307, 206.118 307 C 206.668 307, 206.863 306.588, 206.552 306.084 C 206.240 305.580, 206.428 304.005, 206.968 302.584 C 207.508 301.163, 207.566 300, 207.097 300 C 206.263 300, 204.631 296.506, 203.595 292.500 C 203.310 291.400, 203.322 293.866, 203.622 297.980 M 237 292.550 C 233.089 293.670, 232.893 293.845, 235.500 293.884 C 237.150 293.909, 239.625 293.286, 241 292.500 C 243.969 290.803, 243.061 290.814, 237 292.550 M 218 299.086 C 216.850 299.896, 217.258 300.049, 219.750 299.744 C 221.537 299.525, 223 299.670, 223 300.066 C 223 300.462, 223.762 301.079, 224.694 301.436 C 226.179 302.006, 226.159 301.834, 224.539 300.043 C 222.503 297.793, 220.297 297.470, 218 299.086 M 209.236 302.796 C 209.540 303.955, 209.273 305.115, 208.644 305.373 C 207.891 305.682, 207.947 305.869, 208.809 305.921 C 209.583 305.968, 209.811 306.511, 209.367 307.250 C 208.795 308.202, 208.995 308.193, 210.205 307.213 C 211.854 305.878, 211.574 302.473, 209.722 301.328 C 209.076 300.929, 208.893 301.482, 209.236 302.796 M 162.017 364.058 C 160.101 365.695, 157.978 366.822, 157.299 366.561 C 156.620 366.301, 155.824 366.475, 155.531 366.949 C 155.239 367.423, 151.287 367.632, 146.749 367.413 C 140.152 367.096, 139.143 367.218, 141.711 368.027 C 143.820 368.690, 144.740 369.515, 144.390 370.427 C 143.716 372.183, 138.471 374.409, 137.060 373.537 C 136.477 373.177, 136 373.359, 136 373.941 C 136 374.523, 135.550 375, 135 375 C 133.589 375, 133.756 371.674, 135.250 369.998 C 136.311 368.809, 136.239 368.794, 134.776 369.899 C 132.489 371.627, 131.600 376.817, 132.972 380.427 L 134.077 383.332 136.933 379.916 C 138.642 377.872, 139.377 376.243, 138.763 375.859 C 136.964 374.737, 141.936 373.813, 146.042 374.507 C 148.741 374.963, 150 374.811, 150 374.029 C 150 373.398, 149.591 373.135, 149.090 373.444 C 146.963 374.759, 144.578 372.782, 146.551 371.339 C 149.088 369.484, 154 369.590, 154 371.500 C 154 372.325, 153.400 373, 152.667 373 C 151.933 373, 151.333 373.675, 151.333 374.500 C 151.333 375.325, 151.821 376.005, 152.417 376.010 C 153.012 376.016, 154.376 377.928, 155.447 380.260 L 157.394 384.500 157.757 380.750 C 158.092 377.294, 158.371 376.994, 161.310 376.930 C 165.288 376.842, 169.832 375.185, 166.411 375.070 C 165.180 375.029, 163.841 373.945, 163.153 372.436 C 161.925 369.740, 165.255 368.994, 167.326 371.500 C 167.819 372.097, 167.986 371.895, 167.740 371 C 167.458 369.972, 165.940 369.476, 162.914 369.423 C 156.953 369.318, 156.254 369.125, 157.953 368.050 C 159.883 366.829, 167.174 366.951, 168.750 368.230 C 171.841 370.739, 173.253 366.873, 170.352 363.845 C 166.984 360.330, 166.360 360.346, 162.017 364.058 M 248.042 366.624 C 245.243 367.801, 242.660 367.893, 234.232 367.112 C 224.195 366.182, 217.268 367.006, 218.490 368.984 C 218.758 369.418, 218.195 370.387, 217.239 371.137 C 215.665 372.370, 215.630 372.334, 216.872 370.750 C 218.574 368.581, 217.188 368.480, 214.223 370.557 C 211.209 372.668, 211.367 375.809, 214.549 377.018 C 216.565 377.785, 217.516 377.597, 219.103 376.119 C 221.858 373.552, 225.927 373.685, 226.961 376.375 C 229.900 384.021, 238 386.330, 238 379.523 C 238 374.137, 244.655 370.778, 247.531 374.712 C 248.389 375.885, 249.930 376.346, 252.432 376.178 C 255.700 375.958, 256.192 376.254, 257.157 379.020 C 258.355 382.457, 261.453 382.845, 263.363 379.798 C 264.666 377.719, 264.107 377.069, 260.781 376.794 C 259.238 376.666, 258.408 376.099, 258.691 375.364 C 259.001 374.555, 258.460 374.328, 257.079 374.690 C 255.652 375.063, 255 374.760, 255 373.725 C 255 372.896, 253.762 371.891, 252.250 371.494 C 249.721 370.829, 249.661 370.705, 251.500 369.956 C 254.600 368.692, 256.720 368.863, 258.365 370.508 C 259.194 371.337, 260.121 371.613, 260.425 371.121 C 262.176 368.288, 252.468 364.763, 248.042 366.624 M 228 369.819 C 228 371.177, 229.235 372.277, 232 373.383 C 234.200 374.264, 236.036 375.550, 236.081 376.242 C 236.125 376.934, 236.996 375.708, 238.016 373.518 C 239.035 371.328, 239.786 369.472, 239.685 369.393 C 237.627 367.802, 228 368.154, 228 369.819 M 155 372.022 C 155 373.965, 157.629 375.007, 160.229 374.095 C 162.532 373.287, 161.128 371.415, 157.750 370.788 C 155.606 370.390, 155 370.662, 155 372.022 M 174 371.917 C 174 372.971, 173.438 374.062, 172.750 374.341 C 171.783 374.733, 171.812 375.066, 172.878 375.812 C 173.636 376.342, 173.955 377.263, 173.588 377.858 C 173.193 378.496, 174.673 378.321, 177.195 377.431 C 181.083 376.059, 181.579 376.071, 182.669 377.562 C 184.086 379.500, 186.172 378.569, 185.777 376.175 C 185.342 373.541, 183.386 372.009, 180.321 371.900 L 177.500 371.801 180 371 C 182.124 370.320, 181.860 370.184, 178.250 370.100 C 174.694 370.016, 174 370.313, 174 371.917" stroke="none" fill="#446d8e" fill-rule="evenodd"/></svg>